<?xml version="1.0" standalone="no"?>
<!DOCTYPE svg PUBLIC "-//W3C//DTD SVG 20010904//EN"
 "http://www.w3.org/TR/2001/REC-SVG-20010904/DTD/svg10.dtd">
<svg version="1.0" xmlns="http://www.w3.org/2000/svg"
 width="374.000000pt" height="374.000000pt" viewBox="0 0 374.000000 374.000000"
 preserveAspectRatio="xMidYMid meet">
<metadata>
Created by potrace 1.11, written by Peter Selinger 2001-2013
</metadata>
<g transform="translate(0.000000,374.000000) scale(0.100000,-0.100000)"
fill="#000000" stroke="none">
<path d="M2024 3372 c-6 -4 -16 -17 -23 -29 -16 -31 -3 -52 56 -96 52 -38 157
-144 190 -192 98 -143 153 -316 158 -494 2 -74 5 -87 25 -103 29 -23 36 -23
64 5 22 22 24 30 20 113 -6 139 -26 238 -74 354 -65 158 -245 375 -359 435
-34 17 -41 18 -57 7z"/>
<path d="M1848 3179 c-11 -6 -18 -22 -18 -39 0 -22 11 -37 47 -67 78 -63 100
-86 143 -143 78 -104 120 -226 126 -370 3 -72 7 -88 25 -102 26 -22 39 -22 65
-4 17 13 19 26 17 118 -4 203 -89 390 -242 532 -86 80 -124 98 -163 75z"/>
<path d="M1707 2989 c-22 -30 -11 -54 46 -102 73 -60 93 -84 127 -152 33 -67
41 -101 44 -192 3 -71 17 -93 56 -93 38 0 53 22 56 81 7 166 -87 357 -221 449
-51 35 -88 38 -108 9z"/>
<path d="M1584 2815 c-22 -33 -11 -60 37 -92 59 -39 90 -98 93 -177 3 -72 16
-96 53 -96 40 0 56 25 57 88 0 106 -18 154 -87 229 -69 75 -124 92 -153 48z"/>
<path d="M1137 2663 c-54 -16 -111 -74 -126 -130 -6 -21 -11 -100 -11 -175 l0
-138 -194 0 -194 0 3 58 c14 216 -129 385 -320 377 -142 -6 -250 -110 -280
-269 -14 -76 -9 -169 14 -228 8 -20 7 -36 -4 -62 -12 -28 -14 -129 -15 -575 0
-469 2 -546 15 -578 20 -49 50 -80 100 -105 39 -20 56 -21 680 -21 579 0 645
1 675 16 18 10 34 17 35 17 1 0 10 -21 20 -47 89 -237 234 -392 409 -437 72
-19 115 -14 172 19 66 39 82 77 119 295 29 172 11 248 -72 300 -77 48 -83 53
-83 73 0 11 24 112 54 226 30 113 76 287 101 386 26 99 55 212 65 250 37 139
1 238 -104 281 -76 31 -390 19 -411 -16 -4 -6 -18 -4 -37 6 -35 18 -58 23
-110 26 l-38 1 0 152 c0 193 -15 235 -106 286 -34 19 -55 22 -176 23 -87 2
-152 -3 -181 -11z"/>
<path d="M2289 1288 c-3 -137 -1 -250 5 -255 3 -4 11 -2 17 4 7 7 19 8 39 0
38 -14 84 6 103 44 21 45 7 129 -27 151 -16 11 -74 10 -81 -2 -13 -21 -22 -8
-22 33 -1 64 -2 67 -18 67 -11 0 -15 -12 -16 -42z m119 -91 c6 -7 13 -30 16
-50 7 -60 -40 -105 -83 -78 -21 13 -25 106 -5 125 19 19 58 21 72 3z"/>
<path d="M2841 1297 c-83 -41 -83 -213 0 -254 34 -18 80 -16 111 5 38 25 23
49 -17 28 -48 -25 -113 6 -116 56 -5 64 0 95 19 117 19 24 67 34 96 19 28 -15
46 8 20 27 -23 18 -80 19 -113 2z"/>
<path d="M2490 1232 c0 -5 17 -51 39 -104 36 -88 37 -97 24 -122 -10 -20 -20
-26 -34 -23 -14 4 -19 0 -19 -14 0 -23 36 -26 63 -5 18 14 112 264 103 274
-15 14 -37 -14 -53 -65 -19 -66 -20 -69 -22 -85 -2 -20 -18 4 -31 47 -20 67
-40 105 -55 105 -8 0 -15 -4 -15 -8z"/>
<path d="M3023 1138 c2 -84 5 -103 17 -103 12 0 16 17 20 73 4 58 9 77 25 88
11 8 25 12 32 10 8 -3 13 2 13 14 0 24 -27 26 -58 4 -20 -14 -22 -14 -22 0 0
9 -6 16 -14 16 -12 0 -14 -19 -13 -102z"/>
<path d="M3184 1216 c-23 -19 -28 -33 -30 -74 -2 -44 1 -56 26 -82 72 -77 183
4 151 111 -21 69 -93 92 -147 45z m100 -28 c32 -45 11 -119 -36 -125 -19 -2
-31 3 -42 19 -34 48 -9 128 39 128 13 0 31 -10 39 -22z"/>
<path d="M3388 1228 c-3 -7 -4 -49 -3 -92 2 -64 6 -82 21 -93 23 -17 55 -17
79 1 16 11 21 11 33 0 7 -8 17 -12 21 -10 4 3 7 49 6 103 0 85 -2 98 -18 101
-15 3 -17 -6 -17 -71 0 -58 -4 -77 -18 -90 -25 -22 -74 -11 -71 16 1 7 1 42 0
80 -1 50 -5 67 -15 67 -8 0 -16 -6 -18 -12z"/>
<path d="M3617 1222 c-35 -38 -16 -75 51 -102 25 -10 32 -18 30 -34 -3 -21
-25 -25 -82 -14 -29 5 -30 -17 -1 -30 57 -26 109 -9 120 39 5 20 1 32 -16 48
-13 11 -28 21 -34 21 -21 0 -54 31 -49 45 7 17 55 20 71 4 7 -7 12 -6 16 5 14
35 -77 50 -106 18z"/>
</g>
</svg>
